PathFileType	4	(X/Y/Z)	D:\Research_projects\MuscleProsody\BulkSports2Dtrack\RetrackedSports2D\p1_sample60_cam2\p1_sample60_cam2_Sports2D\p1_sample60_cam2_Sports2D_m_person00.trc
DataRate	CameraRate	NumFrames	NumMarkers	Units	OrigDataRate	OrigDataStartFrame	OrigNumFrames
60	60	9	22	m	60	0	780
Frame#	Time	Hip			RHip			RKnee			RAnkle			RBigToe			RSmallToe			RHeel			LHip			LKnee			LAnkle			LBigToe			LSmallToe			LHeel			Neck			Head			Nose			RShoulder			RElbow			RWrist			LShoulder			LElbow			LWrist		
		X1	Y1	Z1	X2	Y2	Z2	X3	Y3	Z3	X4	Y4	Z4	X5	Y5	Z5	X6	Y6	Z6	X7	Y7	Z7	X8	Y8	Z8	X9	Y9	Z9	X10	Y10	Z10	X11	Y11	Z11	X12	Y12	Z12	X13	Y13	Z13	X14	Y14	Z14	X15	Y15	Z15	X16	Y16	Z16	X17	Y17	Z17	X18	Y18	Z18	X19	Y19	Z19	X20	Y20	Z20	X21	Y21	Z21	X22	Y22	Z22
0	0.0	0.8177709249814672	0.8521045966255496	0.0301	0.7119192300383325	0.8142944796645053	0.0301	0.737838111674877	0.44699151778445934	0.129	0.7680370497717905	0.15675673157217007	0.023	0.7656807074447772	0.002651337605839977	0.2179	0.7057627369991308	0.031068534139952853	0.1804	0.7922264795822874	0.13348590705711963	-0.0119	0.9137285255106498	0.8127836612600908	0.0301	0.9098960974967661	0.4508666159180912	0.129	0.8986649187043216	0.15404435829209087	0.023	0.925701332339021	0.012293085497733213	0.2179	0.9786295519389675	0.031443603432698405	0.1804	0.881558028915535	0.12392643120657784	-0.0119	0.8215841766160678	1.486867035163785	0.0008	0.8030676354051862	1.782879221712212	0.0655	0.7706969427984282	1.6337762494674648	0.1076	0.6457025867975994	1.3879296567997976	-0.01275	0.6051111033134177	1.0846157822939746	0.0702	0.5691842796709201	0.8345958146270862	0.1076	1.013462329809371	1.390291736441509	-0.01275	1.0616076937893895	1.0948482082834767	0.0702	1.091134791141474	0.8343791248240082	0.1076
1	0.016666666666666666	0.8168232155411523	0.8510296308747277	0.0301	0.7122252972016904	0.815254154170745	0.0301	0.7374464412461164	0.4458296961140021	0.129	0.7672396038731689	0.1533497035917541	0.023	0.7673942304001714	0.0019918409606270175	0.2179	0.7072253468347522	0.0283089806141128	0.1804	0.7902879526952779	0.12850870401533088	-0.0119	0.9135501682845575	0.8142819274822297	0.0301	0.909917019503911	0.4501230203655083	0.129	0.9007491167714606	0.15138742813433467	0.023	0.9226070481135926	0.013161536225179073	0.2179	0.97720418058203	0.032466819222783494	0.1804	0.8841822172445166	0.12127712777415049	-0.0119	0.820529364568661	1.4885688413343718	0.0008	0.804324411961939	1.7831884663503659	0.0655	0.7726266974319657	1.634541649657733	0.1076	0.6450318078408921	1.3867596917487406	-0.01275	0.6044911712089611	1.086110696710982	0.0702	0.5695103889617978	0.8367642627861157	0.1076	1.0135151151127402	1.3909970067025013	-0.01275	1.061746086654843	1.0963056687791106	0.0702	1.0911408826815592	0.8378979860580069	0.1076
2	0.03333333333333333	0.8159427252883632	0.850051175976902	0.0301	0.7124901836225268	0.8161613533590774	0.0301	0.7370731323965058	0.4447494127686753	0.129	0.7664980498156918	0.15017443931851945	0.023	0.7690050816500344	0.001404971123781011	0.2179	0.7085966499567025	0.025751113920869033	0.1804	0.7884556990323837	0.12386699516486976	-0.0119	0.9133765848872524	0.8156743859765488	0.0301	0.9099495468752717	0.449460675159771	0.129	0.9027233566659907	0.14894794929425126	0.023	0.9196929881305766	0.013917958051637007	0.2179	0.9758269143061724	0.03338602756714075	0.1804	0.8866347445939243	0.11889281299610226	-0.0119	0.819556281542362	1.4901484887742285	0.0008	0.8054684510453102	1.7834798357481172	0.0655	0.7744072441454788	1.6352072613469737	0.1076	0.6444100113226044	1.385674655165701	-0.01275	0.6038799651631455	1.087525438354194	0.0702	0.569748039351987	0.8388368775788894	0.1076	1.0135647869878979	1.3916582652415819	-0.01275	1.0618852617237795	1.0976649249067685	0.0702	1.0911586708424386	0.8412103328050691	0.1076
3	0.05	0.8151784374689321	0.8492474989705208	0.0301	0.7126977628205767	0.8170046210481634	0.0301	0.7367257073591768	0.4438152894160389	0.129	0.7658470618107248	0.14735817622237507	0.023	0.7704460992962218	0.0009166028143661588	0.2179	0.7098260050635053	0.023524501807566465	0.1804	0.7868110725523791	0.11975213923485988	-0.0119	0.9132214951098788	0.8169071167573144	0.0301	0.9100091117422929	0.4489430922615207	0.129	0.9044991928209819	0.14688020443612126	0.023	0.917112091174637	0.014503340594576043	0.2179	0.9745527884602897	0.03415446437637773	0.1804	0.8887880283293677	0.11693674129713329	-0.0119	0.8187311407481791	1.491518767144838	0.0008	0.8064208740945217	1.7837345220497391	0.0655	0.7759066191125065	1.6356908637746101	0.1076	0.6438777179162586	1.3847394557189783	-0.01275	0.6032812603234724	1.0888043159656344	0.0702	0.5698441651083938	0.8407216374084753	0.1076	1.0136042325566148	1.3922457124487468	-0.01275	1.0620277769721094	1.098862742498496	0.0702	1.0911802852708399	0.8441432135757444	0.1076
4	0.06666666666666667	0.8145504835957862	0.8486779438473088	0.0301	0.7128584585034369	0.8178144152539216	0.0301	0.7364045266811259	0.4430836115950435	0.129	0.7653036801017031	0.14495759786284806	0.023	0.7716771449773884	0.0005417252765492359	0.2179	0.7108897947196062	0.02169368875076026	0.1804	0.7854079646113135	0.11624689205213344	-0.0119	0.913091472174286	0.8179973195402491	0.0301	0.9101100212876513	0.4486199553485546	0.129	0.9060227902445593	0.14525721703197086	0.023	0.9149416313745764	0.014926345931931857	0.2179	0.9734243901686681	0.03477488550200183	0.1804	0.8905753611907093	0.11546597282225046	-0.0119	0.8180873831345112	1.4926470339604185	0.0008	0.8071412184879556	1.7839465272040573	0.0655	0.7770484479625428	1.6359772984836634	0.1076	0.64346351609016	1.3839936301503266	-0.01275	0.6026864942862132	1.0899153052821555	0.0702	0.5697819525103227	0.8423497327749805	0.1076	1.0136295978246805	1.3927411164235541	-0.01275	1.0621815232169713	1.0998606462102802	0.0702	1.091186636804577	0.8465988337407603	0.1076
5	0.08333333333333333	0.8140537499190867	0.8483635056298416	0.0301	0.7129977103187488	0.818621920428421	0.0301	0.7361098486225344	0.4425746862611166	0.129	0.7648711310106205	0.14297633680282398	0.023	0.7726763308019428	0.0002869318595127222	0.2179	0.7117783439476895	0.020269535251761145	0.1804	0.7842703776324498	0.11336330825621223	-0.0119	0.9129908394137899	0.8189899708300068	0.0301	0.910261758203316	0.44850431202289853	0.129	0.9072786991906244	0.1440825811832425	0.023	0.9131805893597653	0.015217555729157863	0.2179	0.9724574094944995	0.035251230004440234	0.1804	0.8919881551016622	0.11445022667868486	-0.0119	0.8176318504266956	1.4935414773086026	0.0008	0.8076234631445814	1.7841242513395656	0.0655	0.7778114463258113	1.6361017094345514	0.1076	0.6431782216354035	1.3834517573980438	-0.01275	0.6020885185827358	1.090849136046892	0.0702	0.5695708229195495	0.8436884198646306	0.1076	1.0136384750182135	1.393146544048997	-0.01275	1.0623482385085636	1.1006444606882864	0.0702	1.0911610198912798	0.8485500990627045	0.1076
6	0.1	0.8136714919220498	0.8482778884713313	0.0301	0.7131428752614976	0.8194264859528717	0.0301	0.7358451311598434	0.4422584361223871	0.129	0.7645409127670788	0.14139070222439348	0.023	0.7734400051632133	0.00015603546064343562	0.2179	0.712490069054047	0.019223698964192047	0.1804	0.7833933498479909	0.1110768609227996	-0.0119	0.9129230096873944	0.8199062581394916	0.0301	0.9104627096714815	0.4485634940725645	0.129	0.9082826361212621	0.14331277322774139	0.023	0.9117750430828383	0.015393349571225321	0.2179	0.9716361797191668	0.035561716877195115	0.1804	0.8930575684683077	0.11381070951242571	-0.0119	0.8173493839835653	1.4942287755720693	0.0008	0.8078868775699409	1.7842813470528112	0.0655	0.7782210417508533	1.6361144397808316	0.1076	0.6430124963544176	1.3831090861129247	-0.01275	0.6014908945979155	1.0916162607866027	0.0702	0.5692355072632684	0.8447383476438279	0.1076	1.0136255037101725	1.3934871283925956	-0.01275	1.0625146281572442	1.1012222059576862	0.0702	1.0910918074114868	0.8500245498455213	0.1076
7	0.11666666666666667	0.8133890215302217	0.8483593150807253	0.0301	0.7133140484205668	0.8202013275490475	0.0301	0.7356181034527332	0.4420719148003048	0.129	0.7642986575381817	0.14017016698079032	0.023	0.773989721969836	0.0001387085483018792	0.2179	0.7130327909536978	0.018498224850739757	0.1804	0.7827489489444454	0.10934440259719617	-0.0119	0.9128916134442685	0.8207364576454085	0.0301	0.9107030331830623	0.4487370088780952	0.129	0.9090594992213316	0.14288231554730893	0.023	0.9106596347517646	0.015465823548622876	0.2179	0.9709351487660529	0.03568968432859733	0.1804	0.8938247848012205	0.11345964868678138	-0.0119	0.8172084962903202	1.4947371539852694	0.0008	0.8079722012045727	1.784421787586294	0.0655	0.7783383038931277	1.6360562587005898	0.1076	0.642943854565788	1.3829429060897869	-0.01275	0.600907593234076	1.0922349098322697	0.0702	0.5688091263952791	0.8455133563009912	0.1076	1.0135867917027965	1.3937932521441003	-0.01275	1.062658394389519	1.1016174125977474	0.0702	1.0909739482468244	0.8510868329822129	0.1076
8	0.13333333333333333	0.8132006081313399	0.8485338255654616	0.0301	0.7135186221293347	0.8209069048619253	0.0301	0.7354414024083663	0.44195064047038557	0.129	0.764131896927959	0.13929007432458893	0.023	0.7743677864198519	0.00020363942517254299	0.2179	0.7134206283876046	0.018020017188468296	0.1804	0.7822984038825557	0.10812380498887206	-0.0119	0.9129004272535829	0.8214583562645493	0.0301	0.9109697742634297	0.44896199499283196	0.129	0.9096267769530628	0.1427246664515709	0.023	0.9097851328819857	0.015466141086899676	0.2179	0.9703408843178577	0.03565806753129962	0.1804	0.8943215075466278	0.1133261558717336	-0.0119	0.817169583033407	1.4950814417242895	0.0008	0.8079379844349714	1.7845356197734894	0.0655	0.778247693919168	1.635955305757703	0.1076	0.6429509421107692	1.3829145393556617	-0.01275	0.6003593061118258	1.0927153709730617	0.0702	0.5683279495174017	0.8460336211001424	0.1076	1.0135281742893663	1.3940758950043972	-0.01275	1.0627638812753584	1.1018602653042047	0.0702	1.0908131564324104	0.8518203571420124	0.1076
